<?xml version="1.0" standalone="no"?>
<!DOCTYPE svg PUBLIC "-//W3C//DTD SVG 20010904//EN"
 "http://www.w3.org/TR/2001/REC-SVG-20010904/DTD/svg10.dtd">
<svg version="1.0" xmlns="http://www.w3.org/2000/svg"
 width="749.000000pt" height="749.000000pt" viewBox="0 0 749.000000 749.000000"
 preserveAspectRatio="xMidYMid meet">

<g transform="translate(0.000000,749.000000) scale(0.100000,-0.100000)"
fill="#000000" stroke="none">
<path d="M0 3745 l0 -3745 3745 0 3745 0 0 3745 0 3745 -3745 0 -3745 0 0
-3745z m2680 3230 c0 -3 -12 -10 -26 -15 -14 -6 -23 -14 -20 -19 4 -5 -4 -7
-16 -3 -15 4 -19 2 -13 -7 6 -10 2 -11 -15 -6 -16 5 -20 4 -15 -5 5 -9 1 -10
-15 -5 -17 5 -21 4 -15 -6 6 -9 4 -11 -8 -6 -9 3 -18 -1 -22 -11 -5 -14 -7
-14 -15 -2 -9 13 -10 13 -10 0 0 -9 -36 -30 -93 -55 -50 -21 -148 -70 -217
-108 -620 -342 -1099 -834 -1405 -1445 -160 -320 -255 -614 -309 -953 -32
-205 -36 -238 -25 -245 5 -3 68 -14 140 -24 72 -10 134 -21 137 -24 3 -3 -69
-6 -161 -6 -94 0 -168 4 -172 10 -3 5 1 67 9 138 124 1057 736 1984 1666 2524
145 84 366 188 400 188 11 0 20 5 20 10 0 6 8 10 18 10 10 0 22 3 26 7 4 5 40
20 79 35 85 32 77 29 77 23z m1435 -90 c46 -45 24 -104 -64 -173 -27 -22 -47
-42 -44 -46 4 -3 22 -6 42 -7 48 -1 89 -13 75 -22 -13 -7 -162 8 -172 18 -7 7
7 19 78 69 74 51 101 120 58 150 -33 23 -55 20 -80 -14 -24 -33 -38 -38 -38
-15 0 30 47 65 85 65 25 0 44 -8 60 -25z m-1175 -74 c0 -5 -12 -12 -27 -16
-15 -3 -31 -11 -34 -16 -3 -6 8 -59 24 -120 17 -60 27 -112 23 -116 -11 -12
-22 13 -47 106 -31 120 -34 124 -75 116 -63 -11 -35 13 39 33 83 24 97 25 97
13z m1670 -1 c59 -32 35 -200 -35 -246 -29 -19 -78 -13 -107 13 -36 32 -18
173 29 225 18 20 82 24 113 8z m469 -161 c96 -34 53 -145 -72 -185 -31 -10
-57 -21 -57 -25 0 -3 22 -16 49 -28 57 -24 80 -48 37 -37 -46 11 -140 61 -136
71 3 6 34 19 70 31 82 26 116 48 128 84 20 55 -50 97 -92 55 -16 -17 -36 -20
-36 -6 0 12 49 51 65 51 7 0 26 -5 44 -11z m-1769 -14 c0 -8 -7 -15 -15 -15
-8 0 -15 7 -15 15 0 8 7 15 15 15 8 0 15 -7 15 -15z m-872 -1 c40 -11 25 -30
-24 -30 -36 1 -49 -4 -60 -19 -12 -18 -12 -24 2 -43 13 -19 25 -22 77 -22 75
0 107 -18 107 -60 0 -42 -9 -59 -41 -75 -35 -19 -70 -19 -95 -1 -27 20 -11 30
28 17 28 -10 36 -9 58 7 30 23 35 41 17 67 -12 15 -26 18 -81 17 -54 -2 -70 2
-86 18 -27 27 -26 71 3 97 34 31 56 37 95 27z m1652 -123 c140 -18 425 -84
445 -102 5 -5 18 -9 30 -9 21 0 129 -37 250 -85 332 -132 659 -355 922 -628
110 -114 255 -296 247 -309 -13 -21 -45 -5 -75 39 -52 75 -199 241 -295 333
-253 241 -572 447 -886 570 -57 23 -112 45 -123 50 -22 11 -152 46 -225 61
-541 113 -1059 80 -1549 -98 -267 -96 -472 -206 -755 -402 -79 -55 -90 -52
-25 7 128 115 321 240 515 333 319 154 612 230 1014 263 93 8 370 -5 510 -23z
m-2080 -95 c0 -2 -20 -17 -45 -33 -25 -15 -45 -32 -45 -37 0 -17 42 -76 54
-76 8 0 25 9 39 20 14 11 30 20 36 20 22 0 10 -17 -24 -36 -39 -21 -43 -38
-18 -74 26 -39 34 -40 72 -14 35 24 61 31 61 17 0 -5 -26 -23 -57 -42 l-56
-34 -16 21 c-33 43 -133 203 -130 206 34 31 129 77 129 62z m3584 -44 c3 -4
-15 -39 -39 -78 -45 -69 -54 -94 -35 -94 6 0 10 -6 10 -14 0 -9 -8 -12 -24 -9
-17 4 -27 -1 -35 -16 -7 -12 -17 -21 -23 -21 -10 0 -8 16 7 52 5 12 -7 25 -50
53 -31 19 -55 41 -53 47 4 12 191 87 220 88 9 0 19 -4 22 -8z m-1344 -117 c9
-10 9 -15 1 -15 -6 0 -11 6 -11 13 0 6 -14 -2 -29 -20 -16 -17 -32 -29 -35
-25 -7 6 43 62 55 62 3 0 12 -7 19 -15z m-650 0 c0 -2 -10 -10 -22 -16 -21
-11 -22 -11 -9 4 13 16 31 23 31 12z m39 -34 c-1 -13 -2 -13 -6 2 -2 9 -9 17
-14 17 -5 0 -9 5 -9 11 0 8 5 8 15 -1 8 -7 14 -20 14 -29z m646 0 c3 -5 1 -12
-4 -15 -5 -3 -11 1 -15 9 -6 16 9 21 19 6z m-674 -33 c26 17 34 15 19 -3 -18
-22 -50 -15 -67 15 l-15 25 22 -24 c18 -21 24 -23 41 -13z m643 5 c3 8 5 8 5
1 1 -6 -6 -17 -14 -24 -11 -10 -18 -9 -30 3 -22 22 -19 28 9 17 17 -6 26 -5
30 3z m-1434 -47 c0 -2 -3 -12 -6 -20 -5 -13 -9 -14 -20 -5 -20 16 -17 29 6
29 11 0 20 -2 20 -4z m1081 -17 c-34 -36 6 -81 52 -58 21 11 21 10 5 -6 -21
-22 -63 -13 -78 16 -9 16 -8 26 5 45 8 13 20 24 26 24 5 0 1 -9 -10 -21z m60
4 c13 -16 12 -17 -3 -4 -10 7 -18 15 -18 17 0 8 8 3 21 -13z m-718 -50 c-7 -2
-19 -2 -25 0 -7 3 -2 5 12 5 14 0 19 -2 13 -5z m94 -19 c-3 -3 -12 -4 -19 -1
-8 3 -5 6 6 6 11 1 17 -2 13 -5z m-282 -24 c-3 -5 -11 -10 -16 -10 -6 0 -30
-13 -54 -30 -45 -31 -61 -37 -50 -20 7 12 106 70 118 70 5 0 5 -4 2 -10z m325
-44 c0 -38 -33 -86 -86 -126 -42 -32 -59 -38 -49 -17 4 6 0 4 -8 -5 -8 -10
-19 -18 -24 -18 -11 0 -112 -42 -146 -61 -10 -5 -23 -7 -29 -3 -7 4 -8 3 -4
-4 4 -7 1 -12 -6 -12 -7 0 -50 -23 -96 -50 -46 -28 -87 -50 -92 -50 -4 0 -10
-4 -12 -9 -1 -5 -9 -11 -16 -13 -7 -2 -32 -21 -55 -43 -166 -158 -255 -215
-517 -332 -19 -8 -46 -21 -60 -28 -41 -21 -168 -52 -285 -70 -143 -22 -211
-38 -314 -74 -86 -30 -113 -32 -87 -5 17 17 30 19 20 2 -4 -7 -3 -8 5 -4 6 4
9 11 7 15 -7 10 68 83 77 76 4 -3 5 -2 2 1 -2 4 7 21 20 38 13 17 52 74 88
126 36 52 70 94 77 92 6 -1 9 2 6 7 -8 13 111 130 149 147 17 7 26 13 21 14
-13 0 57 60 70 60 7 0 14 6 17 14 8 20 157 104 200 111 43 8 77 -13 77 -48 0
-52 -70 -106 -254 -197 -60 -29 -120 -62 -133 -73 -32 -28 -77 -96 -69 -104
14 -15 146 -5 231 16 122 31 208 69 290 127 17 12 36 19 44 16 8 -3 11 0 7 6
-4 6 26 36 66 69 40 31 112 96 161 144 48 48 87 83 87 78 0 -14 -102 -123
-162 -174 -13 -11 -27 -28 -31 -38 -4 -10 -11 -16 -16 -13 -5 3 -12 -1 -15 -9
-3 -10 1 -19 13 -23 14 -5 17 -12 10 -29 -5 -13 -13 -23 -19 -23 -6 0 -9 -4
-5 -9 3 -5 1 -12 -5 -16 -5 -3 -10 -14 -9 -23 0 -11 2 -12 6 -4 2 6 8 10 13 7
4 -2 18 5 31 16 13 11 36 28 52 37 15 9 27 20 27 24 0 4 7 8 15 8 9 0 18 7 21
15 4 8 14 15 24 15 10 0 22 9 25 21 4 11 12 18 18 16 7 -2 16 5 22 16 5 11 14
19 19 17 5 -1 13 5 18 13 4 9 21 18 36 22 16 3 34 15 42 25 8 11 19 20 25 20
19 1 85 36 79 43 -3 3 10 9 30 12 20 4 36 11 36 16 0 5 7 9 15 9 8 0 60 20
117 44 144 61 198 120 169 183 -11 23 -10 25 3 13 9 -7 16 -27 16 -44z m-742
-14 c13 -20 13 -22 -2 -16 -9 3 -16 10 -16 14 0 5 -17 6 -37 4 -21 -3 -46 -5
-55 -5 -10 0 -18 -5 -18 -11 0 -5 -6 -8 -14 -5 -17 7 -24 -8 -22 -44 1 -20 -2
-25 -14 -22 -8 3 0 -5 19 -17 l34 -22 44 23 c25 13 53 34 64 47 11 14 19 19
19 11 -1 -19 -24 -49 -39 -49 -6 0 -11 -4 -11 -8 0 -5 -17 -16 -38 -25 -103
-45 -161 17 -91 98 50 57 147 72 177 27z m2164 -7 c18 -8 24 -13 13 -9 -47 13
-188 24 -280 20 -84 -3 -89 -2 -35 4 96 11 264 3 302 -15z m-397 -5 c-11 -5
-29 -9 -40 -9 -17 -1 -17 1 -5 9 8 5 26 9 40 9 23 0 23 -1 5 -9z m-1490 -19
c-3 -6 -13 -11 -21 -11 -8 0 -14 -8 -15 -17 0 -13 -2 -14 -6 -4 -3 8 5 22 18
32 25 18 36 18 24 0z m2179 -5 c-10 -8 -21 -12 -23 -10 -3 2 4 11 15 18 10 8
21 12 23 10 3 -2 -4 -11 -15 -18z m-771 7 c-7 -2 -19 -2 -25 0 -7 3 -2 5 12 5
14 0 19 -2 13 -5z m817 -3 c0 -5 -2 -10 -4 -10 -3 0 -8 5 -11 10 -3 6 -1 10 4
10 6 0 11 -4 11 -10z m-870 -10 c-8 -5 -19 -10 -25 -10 -5 0 -3 5 5 10 8 5 20
10 25 10 6 0 3 -5 -5 -10z m595 0 c3 -5 1 -10 -4 -10 -6 0 -11 5 -11 10 0 6 2
10 4 10 3 0 8 -4 11 -10z m-1268 -6 c-3 -3 -12 -4 -19 -1 -8 3 -5 6 6 6 11 1
17 -2 13 -5z m-53 -28 c-3 -9 -10 -16 -15 -16 -5 0 -4 9 3 20 14 22 21 20 12
-4z m127 -25 c10 -32 9 -42 -6 -65 -10 -14 -22 -26 -28 -26 -5 0 -3 8 6 18 20
22 22 83 5 100 -9 9 -9 12 0 12 6 0 16 -17 23 -39z m505 24 c-11 -8 -25 -15
-32 -15 -15 0 -78 -32 -82 -42 -2 -5 -8 -8 -13 -8 -9 0 -116 -76 -129 -91 -3
-3 -21 -14 -40 -25 -19 -10 -41 -25 -48 -31 -7 -7 -19 -13 -27 -13 -7 0 -15
-7 -19 -15 -3 -8 -4 -15 -3 -15 1 0 39 13 84 29 46 16 80 25 78 21 -4 -7 -97
-43 -115 -45 -3 0 -11 -4 -17 -8 -16 -10 -60 -17 -138 -23 l-60 -5 34 16 c18
8 37 15 41 15 5 0 21 5 37 12 15 6 30 12 33 13 12 3 114 58 124 66 48 42 163
117 221 145 73 36 104 44 71 19z m-1316 1 c0 -3 -4 -8 -10 -11 -5 -3 -10 -1
-10 4 0 6 5 11 10 11 6 0 10 -2 10 -4z m2267 -12 c27 6 27 6 9 -9 -24 -18 -38
-19 -54 -3 -17 17 -15 33 3 18 9 -7 26 -10 42 -6z m-2302 -23 c-3 -6 -11 -11
-16 -11 -5 0 -4 6 3 14 14 16 24 13 13 -3z m705 -30 c5 -17 5 -31 0 -31 -8 0
-20 34 -20 59 0 21 9 8 20 -28z m-749 -18 c-12 -20 -14 -14 -5 12 4 9 9 14 11
11 3 -2 0 -13 -6 -23z m2329 -53 c41 -7 80 -17 85 -23 6 -6 3 -7 -10 -4 -11 3
-81 11 -156 18 -127 11 -135 13 -122 29 13 15 21 16 71 5 32 -7 91 -18 132
-25z m-1491 14 c2 -2 -3 -6 -12 -10 -8 -3 -28 2 -44 10 l-28 16 40 -6 c22 -4
42 -8 44 -10z m1131 4 c0 -10 -93 -8 -135 1 -19 4 1 7 52 7 46 -1 83 -4 83 -8z
m-332 -5 c-21 -2 -57 -2 -80 0 -24 2 -7 4 37 4 44 0 63 -2 43 -4z m139 1 c-3
-3 -12 -4 -19 -1 -8 3 -5 6 6 6 11 1 17 -2 13 -5z m-362 -19 c-88 -17 -99 -17
-55 0 19 7 55 13 80 13 41 0 39 -1 -25 -13z m-149 -36 c-32 -11 -66 -18 -75
-16 -11 3 -10 5 5 6 12 0 37 8 55 16 19 8 43 14 54 14 11 0 -6 -9 -39 -20z
m-695 -29 c10 -6 19 -18 19 -26 0 -25 -30 -74 -45 -74 -10 0 -6 8 11 27 13 14
23 33 22 42 -6 32 -65 40 -112 16 -105 -55 -138 -74 -196 -114 -36 -25 -67
-48 -70 -51 -10 -11 -80 -61 -85 -61 -2 1 -15 -9 -29 -22 -13 -12 -40 -35 -60
-52 -20 -16 -34 -35 -32 -41 2 -6 -9 -11 -26 -11 -30 0 -30 1 -11 16 11 9 32
25 47 36 15 11 38 30 52 42 13 12 54 43 91 70 38 26 70 50 73 53 13 15 152
100 209 128 66 33 108 39 142 22z m-45 -119 c-3 -4 -20 -14 -38 -21 -49 -18
-83 -34 -190 -84 -106 -50 -117 -54 -94 -31 8 8 19 15 25 15 6 0 11 5 11 10 0
6 6 10 14 10 8 0 27 6 43 14 93 47 137 66 152 66 9 0 26 7 37 15 21 16 48 20
40 6z m1763 -15 c341 -46 518 -108 646 -227 l64 -61 65 7 c50 6 69 4 86 -8 12
-8 17 -18 11 -21 -5 -4 -12 -2 -16 4 -3 5 -11 10 -16 10 -6 0 -4 -7 5 -15 8
-8 20 -15 26 -15 7 0 5 -6 -4 -16 -9 -8 -16 -19 -16 -23 0 -16 -100 -37 -445
-96 -312 -53 -774 -125 -865 -135 -232 -25 -756 -22 -1140 7 -163 12 -36 24
375 33 538 13 684 25 1085 95 80 14 278 48 440 75 162 28 300 56 305 61 15 16
-52 70 -143 117 -220 114 -508 157 -1057 156 -348 0 -496 -12 -672 -54 -112
-27 -159 -52 -288 -158 -241 -199 -342 -236 -670 -247 -88 -3 -164 -10 -168
-14 -6 -6 20 -24 62 -46 40 -19 69 -40 66 -44 -3 -5 4 -7 15 -4 16 4 19 2 14
-12 -6 -14 -3 -16 14 -10 15 4 22 2 22 -6 0 -7 3 -9 6 -6 8 8 78 -44 123 -92
50 -53 75 -98 99 -176 30 -97 27 -111 -9 -40 -44 85 -108 172 -167 228 -28 26
-49 47 -46 47 3 0 -2 7 -11 16 -9 9 -19 14 -22 11 -3 -4 -36 9 -72 28 -109 56
-214 78 -345 72 -185 -8 -312 -63 -440 -192 -69 -69 -70 -69 -46 -26 14 24 51
71 83 103 32 33 56 62 54 65 -7 6 -139 -31 -225 -63 -159 -60 -527 -262 -509
-280 3 -3 65 19 138 49 191 78 339 128 339 115 0 -15 -100 -148 -147 -194 -68
-68 -279 -145 -492 -180 -129 -21 -156 -33 -172 -81 -7 -21 -13 -76 -13 -122
l-1 -84 30 -10 c17 -5 218 -10 457 -11 235 0 421 -4 414 -8 -7 -4 -59 -17
-117 -30 -98 -21 -126 -23 -484 -23 l-380 0 -3 100 c-3 114 11 211 38 265 51
100 381 351 605 461 136 66 402 152 582 188 151 31 283 45 498 56 139 7 261
20 395 42 123 20 195 57 409 213 90 65 180 126 201 134 76 30 339 70 595 90
123 9 725 -4 834 -18z m601 -38 c0 -5 -4 -6 -10 -3 -5 3 -10 1 -10 -6 0 -8 -4
-8 -15 1 -12 10 -13 16 -4 26 9 11 15 11 25 3 8 -6 14 -16 14 -21z m-2713
-110 c-3 -8 -6 -5 -6 6 -1 11 2 17 5 13 3 -3 4 -12 1 -19z m-17 -8 c0 -6 -12
-16 -27 -23 -16 -6 -34 -16 -41 -22 -7 -5 -18 -14 -25 -20 -39 -31 -127 -59
-212 -68 l-50 -6 60 28 c41 19 70 27 92 24 31 -5 90 19 106 45 4 6 15 12 22
12 8 0 15 4 15 10 0 5 7 6 17 3 10 -4 14 -2 10 4 -4 6 -1 14 5 16 21 9 28 8
28 -3z m-1383 -137 c-6 -43 -27 -79 -53 -94 -13 -7 -24 -16 -24 -21 0 -4 -5
-8 -10 -8 -16 0 -59 -52 -60 -71 0 -18 19 -29 53 -29 14 0 -4 -14 -47 -35 -69
-35 -90 -37 -79 -9 5 13 8 13 15 2 8 -10 9 -9 4 4 -9 29 132 267 167 281 29
12 38 7 34 -20z m4850 -185 c0 -7 4 -21 8 -31 7 -17 0 -17 -116 -12 -140 7
-213 14 -206 21 4 4 191 25 298 33 9 0 16 -5 16 -11z m-308 -77 c33 -10 80
-30 104 -45 62 -35 135 -119 167 -191 41 -90 54 -171 16 -97 -8 16 -41 55 -73
86 -171 169 -511 218 -764 109 -35 -15 -65 -31 -67 -35 -2 -4 -9 -8 -16 -8
-20 0 -129 -123 -168 -191 -48 -81 -49 -54 -2 40 32 65 134 191 154 191 4 0
21 13 38 28 125 117 422 172 611 113z m-4769 -38 c0 -5 -15 -16 -33 -26 l-32
-19 24 26 c24 26 41 33 41 19z m3939 -30 c-8 -10 -37 -45 -64 -78 -90 -107
-170 -257 -200 -370 -19 -76 -19 -188 1 -276 9 -39 14 -73 11 -75 -3 -3 -76 1
-164 10 -427 41 -478 42 -1263 21 l-175 -4 145 19 c302 39 528 53 850 54 173
1 358 -3 411 -7 l96 -8 1 103 c1 57 3 117 5 133 1 17 -2 29 -8 29 -111 -16
-670 -44 -845 -43 -177 2 -139 9 292 54 363 38 489 56 554 80 35 13 44 23 58
60 40 104 140 226 233 284 56 36 84 41 62 14z m1161 -97 c0 -7 3 -28 6 -45 4
-17 3 -31 -2 -31 -7 0 -54 71 -54 82 0 2 11 5 25 6 15 1 25 -3 25 -12z m-481
-11 c136 -32 229 -102 277 -209 23 -51 28 -79 32 -168 2 -59 1 -119 -3 -135
-7 -24 -10 -15 -26 60 -46 226 -171 360 -364 386 -110 16 -282 -19 -337 -67
-31 -27 -22 11 10 40 108 99 249 131 411 93z m-3278 -43 c82 -29 117 -49 169
-98 56 -52 99 -140 106 -216 l5 -53 -42 79 c-80 148 -171 222 -329 265 -41 12
-96 21 -121 21 -57 0 -177 -23 -238 -44 -24 -9 -46 -14 -48 -12 -9 9 107 57
168 71 89 19 257 13 330 -13z m3218 -253 c42 -25 37 -31 -14 -17 -59 16 -109
3 -149 -37 -58 -58 -63 -137 -14 -207 23 -34 10 -37 -20 -5 -27 29 -52 89 -52
124 1 47 36 110 77 137 49 32 123 35 172 5z m-3314 -29 c12 -4 27 -15 34 -24
13 -15 11 -16 -13 -6 -156 59 -286 -114 -180 -240 33 -39 8 -41 -28 -2 -128
133 13 337 187 272z m2265 -104 c0 -13 -7 -27 -16 -30 -46 -18 -679 -18 -662
0 2 1 105 8 228 14 124 7 270 17 325 24 55 7 106 14 113 15 6 0 12 -10 12 -23z
m1126 -27 l22 -20 -25 -25 c-14 -14 -26 -24 -27 -22 -1 2 -9 13 -19 25 -18 20
-18 22 0 42 22 26 22 26 49 0z m-3283 -74 l47 -45 -28 -14 c-15 -8 -34 -26
-42 -40 -17 -32 -23 -33 -40 0 -8 14 -26 32 -41 41 l-27 16 42 42 c22 23 41
43 42 43 0 1 21 -18 47 -43z m-1233 28 c0 -5 -36 -45 -79 -90 l-78 -83 -59 1
-59 0 44 20 c48 21 121 75 121 90 0 5 -45 9 -99 9 -55 0 -102 4 -105 9 -3 4
56 17 132 28 159 24 182 26 182 16z m2667 -725 c60 -30 115 -94 138 -160 38
-114 29 -317 -19 -424 -80 -176 -307 -258 -488 -176 -125 57 -199 223 -185
416 9 124 46 215 113 278 41 38 155 89 217 97 73 9 171 -4 224 -31z m-2601
-323 c75 -187 146 -352 156 -368 11 -15 33 -34 49 -42 16 -9 29 -22 29 -30 0
-13 -25 -15 -155 -15 -148 0 -155 1 -155 20 0 13 7 20 20 20 10 0 31 5 45 12
34 15 33 50 -6 143 l-32 75 -158 0 -158 0 -31 -81 c-40 -103 -37 -120 18 -137
30 -10 42 -19 42 -33 0 -18 -9 -19 -125 -19 -112 0 -125 2 -125 18 0 9 15 24
33 32 44 20 57 47 203 411 69 173 130 319 136 326 10 13 59 22 70 13 3 -3 68
-158 144 -345z m624 326 c0 -14 -10 -20 -40 -25 -24 -4 -43 -14 -50 -25 -13
-24 -13 -490 -1 -545 35 -151 328 -190 395 -53 28 58 40 239 30 437 l-9 165
-42 13 c-31 10 -43 19 -43 33 0 18 9 19 125 19 114 0 125 -2 125 -18 0 -12
-11 -21 -32 -27 -51 -15 -58 -40 -58 -225 -1 -240 -13 -367 -38 -416 -45 -89
-134 -128 -287 -127 -149 0 -229 50 -269 166 -13 39 -16 94 -16 307 0 247 -1
261 -20 280 -11 11 -31 20 -45 20 -18 0 -25 5 -25 20 0 19 7 20 150 20 140 0
150 -1 150 -19z m1278 -31 c2 -25 1 -73 -3 -107 -5 -50 -10 -63 -23 -63 -13 0
-22 18 -36 65 -10 35 -24 69 -31 75 -8 6 -49 12 -92 13 l-78 2 -6 -115 c-10
-179 -10 -533 0 -549 5 -7 31 -19 57 -26 31 -8 50 -18 52 -29 3 -14 -15 -16
-173 -16 -158 0 -176 2 -173 16 2 11 21 21 52 29 26 7 52 19 57 26 5 8 8 160
6 339 l-2 325 -78 -1 c-52 -1 -83 -6 -93 -15 -7 -8 -21 -41 -32 -74 -14 -47
-22 -61 -40 -63 -22 -3 -22 -1 -22 107 l0 111 328 -2 327 -3 3 -45z m1347 30
c0 -9 -15 -17 -40 -22 -22 -5 -46 -16 -52 -25 -10 -13 -13 -97 -13 -340 0
-308 1 -323 19 -333 31 -16 213 -13 237 4 13 9 30 44 43 88 12 40 24 79 27 86
7 22 39 9 38 -16 0 -12 -1 -67 -2 -122 l-2 -100 -282 2 c-238 3 -283 5 -283
17 0 8 15 19 35 24 66 17 63 -1 58 360 -3 310 -5 330 -23 343 -10 8 -29 14
-41 14 -13 0 -26 5 -29 10 -16 26 12 30 158 28 125 -3 152 -6 152 -18z m685 0
c0 -14 -7 -20 -24 -20 -13 0 -33 -8 -45 -17 -22 -18 -22 -21 -19 -298 3 -275
3 -281 26 -313 35 -49 94 -75 184 -80 64 -4 84 -1 120 17 84 40 98 102 98 421
0 252 0 250 -67 265 -24 5 -33 12 -33 26 0 19 7 19 128 17 101 -2 127 -6 127
-17 0 -8 -14 -19 -32 -25 -18 -6 -37 -16 -43 -22 -6 -6 -14 -115 -19 -287 l-8
-276 -29 -57 c-23 -45 -39 -63 -79 -85 -93 -53 -277 -60 -364 -14 -39 20 -78
65 -100 115 -17 40 -20 78 -26 320 -6 259 -8 276 -27 293 -11 9 -28 17 -38 17
-18 0 -34 23 -23 34 4 3 71 6 150 6 136 0 143 -1 143 -20z m900 0 c0 -13 -7
-20 -18 -20 -10 0 -27 -6 -37 -14 -19 -13 -18 -16 14 -77 44 -86 102 -179 111
-179 13 0 151 220 148 237 -2 11 -18 21 -41 26 -27 7 -37 14 -37 28 0 18 9 19
120 19 113 0 120 -1 120 -20 0 -11 -4 -20 -9 -20 -23 0 -82 -64 -174 -188 -54
-74 -96 -139 -94 -146 3 -6 48 -84 101 -171 91 -149 125 -194 171 -221 11 -6
15 -15 11 -22 -5 -8 -49 -12 -142 -12 -125 0 -134 1 -134 19 0 13 10 21 34 25
19 4 36 13 39 20 5 13 -92 179 -143 246 l-25 32 -76 -109 c-116 -165 -116
-165 -47 -187 18 -6 33 -18 33 -26 0 -12 -21 -16 -114 -18 -131 -3 -155 6
-106 42 50 35 103 95 197 224 l90 123 -117 176 c-88 132 -124 178 -146 186
-17 7 -29 19 -29 29 0 16 13 18 150 18 143 0 150 -1 150 -20z m-246 -1219 c6
-9 -42 -87 -128 -206 -167 -232 -404 -466 -644 -635 -475 -335 -1142 -531
-1712 -505 -474 22 -906 153 -1290 390 -127 79 -310 219 -310 238 0 4 10 -1
22 -13 12 -11 25 -20 30 -20 4 0 47 -26 95 -58 370 -246 728 -391 1143 -462
324 -55 680 -49 1000 17 69 14 134 27 145 29 11 1 39 9 63 18 23 8 42 12 42 9
0 -4 5 -2 12 5 7 7 18 12 26 12 8 0 28 6 45 14 18 8 72 31 120 51 494 200 941
572 1250 1038 53 80 77 101 91 78z m699 -18 c-30 -82 -183 -350 -272 -477 -31
-43 -69 -97 -84 -119 -89 -126 -344 -398 -502 -534 -73 -64 -199 -159 -300
-229 -61 -42 -331 -204 -340 -204 -2 0 -36 -15 -75 -34 -42 -21 -79 -32 -92
-29 -18 4 -20 2 -9 -5 11 -8 7 -13 -21 -25 -62 -26 -75 -28 -75 -13 0 8 6 12
14 9 7 -3 13 0 13 7 0 7 8 9 20 5 14 -4 20 -2 20 8 0 16 47 40 61 32 5 -4 9
-1 9 4 0 15 100 62 114 54 6 -3 8 -3 4 2 -4 4 50 41 120 82 302 175 634 452
845 703 40 47 74 87 78 90 19 17 140 185 202 281 113 175 212 358 199 371 -4
4 -70 12 -147 18 -77 6 -144 13 -150 15 -5 2 76 4 182 4 179 1 192 0 186 -16z
m-2308 -11 c87 -12 30 -29 -135 -42 -113 -8 -125 -11 -182 -42 -53 -30 -138
-58 -138 -47 0 5 5 9 11 9 6 0 32 15 58 34 62 45 110 69 127 62 7 -3 13 0 11
6 -1 7 8 13 21 14 12 1 25 4 29 8 8 8 132 6 198 -2z m-1451 -13 c-2 -4 -37 -5
-77 -2 -63 5 -131 -2 -237 -23 -21 -4 -22 -4 -8 6 10 6 43 15 75 19 69 11 254
11 247 0z m145 -29 c40 -10 78 -23 84 -29 14 -14 2 -14 -23 -1 -10 5 -56 18
-102 29 -45 11 -72 20 -58 20 14 0 58 -8 99 -19z m811 5 c9 -5 11 -4 6 3 -8
14 3 15 23 3 33 -21 -97 -69 -193 -71 -104 -2 -212 18 -297 54 -32 14 -23 15
136 18 231 4 310 2 325 -7z m919 -10 c91 -8 188 -16 215 -19 43 -3 121 3 246
18 l45 6 -25 -20 c-16 -13 -34 -18 -50 -15 -19 4 -21 3 -10 -5 12 -8 9 -10
-14 -10 -16 0 -26 -3 -22 -7 4 -4 -16 -12 -45 -18 -73 -14 -77 -35 -7 -35 61
0 166 20 254 50 34 11 70 21 80 23 11 1 25 6 31 10 7 5 73 7 147 6 107 -1 132
-4 123 -14 -7 -7 -14 -11 -16 -10 -2 2 -26 -21 -55 -52 -133 -146 -240 -253
-252 -253 -8 0 -14 -4 -14 -10 0 -19 -28 -10 -33 12 -5 16 4 31 34 60 21 21
46 38 54 38 8 0 15 5 15 10 0 6 5 10 10 10 20 0 70 44 70 62 0 9 -9 22 -20 28
-14 7 -20 7 -20 0 0 -5 -6 -10 -13 -10 -18 0 -97 -39 -115 -56 -7 -8 -18 -14
-23 -14 -5 0 -58 -48 -118 -107 -120 -119 -136 -133 -150 -133 -5 0 -11 -4
-13 -8 -6 -16 -121 -88 -203 -128 -44 -21 -81 -42 -83 -46 -2 -5 -9 -8 -15 -8
-6 0 -39 -11 -73 -25 -130 -52 -205 -18 -156 72 17 30 54 46 213 92 168 49
196 60 242 101 72 63 45 76 -153 74 -170 -2 -294 -29 -388 -84 -18 -11 -39
-17 -45 -14 -7 4 -9 4 -5 0 4 -5 -14 -19 -40 -33 -96 -51 -127 -68 -132 -74
-9 -11 -148 -109 -154 -109 -3 0 -15 -8 -25 -17 -37 -34 -50 -43 -114 -78 -35
-19 -70 -35 -77 -35 -8 0 13 14 47 31 33 17 69 38 79 47 18 16 40 32 99 72 39
26 76 54 104 80 36 32 67 50 86 50 8 0 15 5 15 10 0 6 5 10 12 10 7 0 24 14
39 31 18 21 40 34 66 39 l38 7 -45 8 c-40 8 -42 10 -20 16 14 4 19 7 12 8 -7
1 -20 8 -28 16 -17 17 -64 20 -64 5 0 -5 -5 -10 -12 -10 -16 0 -101 -41 -109
-53 -3 -5 -10 -8 -15 -8 -17 1 -44 -10 -44 -19 0 -5 -17 -14 -37 -20 -21 -7
-47 -18 -58 -25 -12 -7 -68 -27 -125 -45 -141 -43 -137 -42 -145 -30 -3 6 3
10 14 10 69 0 303 97 451 186 36 21 76 44 90 51 34 17 208 92 242 105 20 7 29
19 34 43 13 71 -24 105 -124 113 -58 4 -63 6 -46 19 10 7 24 11 31 9 7 -3 13
-2 13 3 0 7 49 19 124 30 5 0 83 -6 175 -14z m-2249 -5 c-100 -23 -202 -41
-206 -37 -7 6 175 45 211 45 29 0 29 0 -5 -8z m-852 -26 c63 -8 70 -21 8 -16
-24 2 -52 2 -62 0 -17 -3 -17 -4 0 -20 27 -27 4 -21 -26 6 -14 14 -28 23 -31
20 -3 -3 -8 -1 -12 5 -7 13 42 14 123 5z m1582 -30 c57 -19 109 -38 114 -42 6
-3 17 -7 23 -8 21 -3 73 -28 73 -35 0 -3 -11 -4 -25 -1 -14 2 -25 7 -25 11 0
4 -21 13 -47 20 -27 8 -52 17 -58 21 -5 4 -45 18 -87 31 -43 13 -78 27 -78 32
0 10 -5 11 110 -29z m-1456 -10 c25 -14 46 -29 46 -32 0 -4 10 -12 23 -18 12
-6 52 -27 90 -47 37 -21 76 -37 87 -37 10 0 22 -5 26 -12 11 -17 -48 -3 -111
28 -30 15 -55 31 -55 36 0 4 -7 8 -15 8 -8 0 -15 5 -15 11 0 5 -4 8 -8 5 -5
-3 -19 5 -33 17 -13 13 -41 31 -61 40 -21 10 -38 20 -38 22 0 10 20 4 64 -21z
m491 16 c-11 -5 -40 -8 -65 -8 l-45 1 45 7 c25 4 54 7 65 8 l20 1 -20 -9z
m-125 -10 c-8 -5 -26 -9 -40 -9 l-25 1 25 8 c14 4 32 8 40 9 13 1 13 0 0 -9z
m-127 -7 c4 -3 2 -12 -4 -19 -27 -32 215 -81 353 -71 52 4 79 3 84 -5 12 -20
-290 -3 -362 19 -64 21 -138 65 -127 76 8 9 48 9 56 0z m54 -9 c-3 -3 -12 -4
-19 -1 -8 3 -5 6 6 6 11 1 17 -2 13 -5z m-412 -24 c3 -6 -1 -7 -9 -4 -18 7
-21 14 -7 14 6 0 13 -4 16 -10z m103 -40 c3 0 3 -3 0 -6 -7 -6 -78 22 -78 31
0 3 16 -2 36 -10 20 -8 39 -15 42 -15z m1009 10 c-34 -10 -287 -34 -293 -27
-7 6 48 15 146 23 41 3 76 6 77 7 1 1 23 3 50 4 40 2 43 0 20 -7z m98 -4 c18
-13 18 -14 -8 -9 -15 3 -27 9 -27 14 0 13 13 11 35 -5z m1400 -17 c-38 -11
-75 -25 -82 -30 -7 -6 -17 -8 -23 -4 -5 3 -10 2 -10 -4 0 -5 -69 -43 -152 -85
-177 -87 -228 -108 -228 -96 0 5 10 12 23 16 36 11 230 107 250 124 10 8 21
16 25 16 27 5 51 17 47 24 -3 4 10 11 28 15 17 4 26 9 19 12 -6 2 -10 8 -7 13
3 4 -12 4 -33 -1 -49 -11 -58 -11 -46 0 15 15 44 19 154 19 l105 1 -70 -20z
m-769 -4 c19 -8 51 -15 70 -17 32 -2 48 -16 22 -20 -7 0 -24 -3 -38 -4 -14 -2
-45 -6 -70 -10 -25 -3 -79 -1 -120 6 -165 26 -235 24 -375 -8 -71 -16 -157
-30 -189 -31 -59 -1 -73 5 -26 11 14 2 30 6 35 10 6 3 27 13 49 22 30 13 36
13 27 2 -22 -26 7 -28 92 -5 123 33 178 37 306 21 172 -20 221 -20 221 3 0 8
-9 15 -19 15 -11 0 -23 5 -26 10 -8 14 -1 13 41 -5z m-1699 -1 c-3 -3 -12 -4
-19 -1 -8 3 -5 6 6 6 11 1 17 -2 13 -5z m2251 -17 c-15 -15 -207 -80 -283 -96
-27 -6 -79 -18 -114 -26 -35 -9 -66 -13 -69 -11 -5 5 41 18 148 41 90 20 244
68 285 89 37 19 51 20 33 3z m-2159 -17 c51 -20 81 -40 81 -56 0 -4 -8 0 -18
9 -10 10 -45 28 -78 42 -71 29 -60 33 15 5z m341 -59 c30 -6 120 -22 200 -37
200 -37 289 -40 455 -14 76 11 142 23 148 27 15 9 160 5 187 -6 l25 -10 -30
-2 c-16 -2 -40 -2 -53 -1 -14 0 -20 -3 -16 -10 5 -7 1 -9 -9 -5 -9 3 -32 0
-51 -8 -20 -8 -43 -15 -53 -14 -10 0 2 8 27 17 41 14 43 16 20 22 -14 4 -38 3
-55 -2 -119 -31 -419 -48 -500 -27 -44 11 -132 27 -182 33 -17 2 -40 7 -50 10
-10 3 -38 8 -63 11 -89 12 -164 30 -167 41 -3 8 13 8 54 -2 32 -8 83 -18 113
-23z m-433 12 c15 -6 13 -8 -12 -13 -35 -6 -46 -37 -19 -57 26 -19 33 -16 49
20 12 26 14 28 15 10 0 -22 -24 -53 -41 -53 -6 0 -19 5 -30 10 -25 14 -26 65
-1 79 21 13 17 12 39 4z m158 -59 c-8 -16 -15 -23 -15 -16 0 13 22 53 27 48 2
-2 -3 -16 -12 -32z m1580 -45 c-40 -35 -42 -41 -18 -65 22 -21 107 -14 183 16
29 11 55 18 58 15 3 -3 3 -6 1 -8 -13 -11 -160 -47 -189 -47 -39 0 -80 23 -80
45 0 15 56 75 71 75 5 0 -6 -14 -26 -31z m-535 6 c0 -7 -57 -35 -72 -35 -7 0
5 9 27 19 48 23 45 22 45 16z m-1000 -47 c0 -6 -6 -5 -15 2 -8 7 -15 14 -15
16 0 2 7 1 15 -2 8 -4 15 -11 15 -16z m870 -18 c-19 -11 -42 -19 -50 -19 -8 0
3 8 25 18 52 25 70 26 25 1z m-775 -31 c16 -6 16 -7 3 -8 -16 -1 -88 36 -88
45 0 3 15 -3 33 -13 17 -10 41 -21 52 -24z m3746 23 c-5 -10 -17 -25 -26 -32
-14 -12 -14 -15 6 -37 28 -29 37 -29 66 -1 13 12 23 17 23 11 0 -6 -7 -16 -15
-23 -22 -18 -18 -35 11 -55 25 -16 27 -16 55 11 37 35 37 20 1 -24 l-28 -33
-77 61 c-42 33 -77 63 -77 66 0 10 54 72 63 73 4 1 3 -7 -2 -17z m-4469 -39
c32 -28 43 -113 16 -113 -6 0 -8 9 -5 21 13 50 -40 107 -89 95 -35 -9 -74 -54
-74 -85 1 -36 21 -59 66 -75 l39 -15 -33 0 c-43 -1 -92 47 -92 89 0 31 41 87
74 101 28 11 75 3 98 -18z m3904 -12 c-9 -13 -16 -14 -35 -2 -12 8 -12 11 0
24 12 13 16 13 28 2 7 -7 10 -18 7 -24z m-2489 23 c-3 -3 -12 -4 -19 -1 -8 3
-5 6 6 6 11 1 17 -2 13 -5z m508 -29 c15 -15 25 -35 24 -52 l-1 -28 -10 30
c-23 66 -73 85 -117 44 -12 -12 -25 -19 -27 -16 -3 3 7 14 22 26 36 28 79 27
109 -4z m-1000 -6 c31 -6 25 -7 -25 -3 -36 3 -81 9 -100 14 -45 11 65 2 125
-11z m422 15 c-3 -3 -12 -4 -19 -1 -8 3 -5 6 6 6 11 1 17 -2 13 -5z m-40 -10
c-3 -3 -12 -4 -19 -1 -8 3 -5 6 6 6 11 1 17 -2 13 -5z m-67 -8 c0 -2 -13 -6
-30 -8 -16 -3 -30 -1 -30 4 0 4 14 8 30 8 17 0 30 -2 30 -4z m-122 -13 c-26
-2 -71 -2 -100 0 -29 2 -8 3 47 3 55 0 79 -1 53 -3z m497 -63 c4 -7 -2 -9 -19
-4 -16 4 -32 1 -41 -6 -9 -8 -15 -8 -15 -2 0 20 64 30 75 12z m251 -40 c21 0
42 8 55 21 11 11 23 18 25 16 14 -14 -43 -47 -79 -47 -39 0 -77 27 -77 54 0 6
10 -1 21 -16 16 -21 29 -28 55 -28z m499 30 c4 -6 -7 -10 -27 -9 -27 0 -30 2
-13 9 27 12 33 12 40 0z m-65 -10 c0 -5 -15 -9 -32 -9 l-33 1 30 8 c17 4 31 8
33 9 1 0 2 -3 2 -9z m-670 -20 c0 -11 -11 -27 -24 -35 -20 -14 -28 -14 -45 -3
-12 7 -21 17 -21 22 0 4 7 3 14 -4 23 -18 61 -8 64 18 4 27 12 29 12 2z m530
-14 c-57 -30 -92 -67 -94 -100 -1 -29 -16 -36 -16 -8 1 38 50 91 109 119 47
21 47 13 1 -11z m-981 -47 c-22 -14 -33 -10 -19 6 7 8 17 12 22 9 6 -4 5 -10
-3 -15z m59 -35 c1 -1 -6 -7 -15 -15 -10 -7 -15 -10 -11 -5 4 5 2 18 -4 30
-11 20 -10 20 8 6 10 -8 20 -15 22 -16z m3058 -9 c9 -21 21 -35 32 -35 52 0
55 -54 5 -105 l-36 -38 -71 73 -70 72 37 34 c50 46 83 46 103 -1z m-3152 10
c-4 -10 4 -19 26 -29 21 -8 28 -16 21 -21 -7 -4 -24 3 -39 16 -15 13 -29 25
-32 27 -2 2 2 7 10 12 20 13 20 12 14 -5z m1848 -43 c6 -6 3 -12 -6 -15 -8 -3
-18 -2 -21 3 -16 26 -113 5 -152 -32 -13 -12 -25 -20 -27 -17 -9 8 20 37 59
58 32 18 50 21 89 17 27 -3 53 -9 58 -14z m-2712 -29 c0 -25 -63 -183 -73
-183 -5 0 -6 13 -2 28 4 22 0 33 -24 56 -25 24 -34 27 -63 21 -44 -10 -33 0
59 51 87 48 103 52 103 27z m2730 -11 c0 -19 -41 -62 -77 -81 -31 -16 -105
-14 -131 5 -22 15 -30 44 -12 44 6 0 10 -7 10 -15 0 -31 68 -41 125 -19 26 10
65 51 65 70 0 7 5 14 10 14 6 0 10 -8 10 -18z m-887 -19 c34 -18 193 -25 252
-10 17 4 44 9 60 12 25 4 23 3 -10 -11 -25 -10 -81 -18 -145 -21 -96 -4 -109
-2 -155 21 -27 13 -46 25 -42 25 4 1 22 -7 40 -16z m-321 -79 c33 -8 77 -25
97 -38 88 -55 199 -98 281 -109 21 -3 18 -5 -20 -18 -32 -10 -93 -14 -205 -14
-138 0 -171 4 -240 24 -94 28 -121 44 -127 76 -7 35 17 83 44 88 50 9 113 6
170 -9z m798 -84 c-7 -4 -19 -3 -26 3 -10 10 -10 14 4 25 13 10 18 9 25 -4 6
-11 5 -19 -3 -24z m1400 25 c16 -8 36 -25 44 -37 18 -26 21 -80 6 -109 -16
-28 -67 -51 -99 -44 -33 7 -76 50 -84 84 -9 38 18 90 55 106 42 18 43 18 78 0z
m-3406 -78 c7 -11 7 -25 0 -44 -7 -22 -17 -29 -44 -33 -33 -5 -35 -8 -41 -50
-7 -56 -11 -51 -13 21 l-1 55 27 -10 c51 -19 83 37 41 75 -28 27 -49 20 -73
-26 -20 -38 -80 -103 -80 -87 0 7 25 46 56 88 l56 75 31 -24 c17 -13 35 -31
41 -40z m3030 -132 c-18 -14 -18 -17 24 -95 24 -44 38 -80 33 -80 -6 0 -29 34
-52 76 -37 67 -44 75 -65 70 -38 -10 -28 2 24 28 49 25 69 26 36 1z m-2579
-172 c-3 -32 -9 -68 -12 -80 -9 -39 14 -25 62 38 26 33 52 58 58 56 7 -3 11
-8 11 -13 -10 -64 -13 -154 -6 -154 5 0 29 29 53 65 39 58 59 78 59 59 0 -3
-25 -42 -56 -85 -75 -107 -89 -106 -75 7 5 38 5 73 1 77 -4 5 -29 -19 -55 -52
-43 -55 -75 -77 -75 -52 0 18 21 166 25 179 11 31 17 6 10 -45z m2271 -13
c-24 -59 -21 -68 32 -92 58 -28 57 -27 50 -34 -3 -3 -29 6 -56 20 -55 28 -68
23 -52 -19 13 -33 13 -52 1 -40 -9 9 -71 159 -71 170 0 3 4 5 9 5 5 0 14 -13
20 -30 17 -51 32 -38 65 54 3 10 9 16 12 13 4 -3 -1 -24 -10 -47z m-321 -164
c54 -76 66 -108 25 -71 -33 30 -110 5 -110 -36 0 -11 -5 -19 -11 -19 -7 0 -9
16 -5 48 3 26 9 70 12 97 11 87 14 86 89 -19z m-1408 -27 c15 -109 15 -109 3
-109 -5 0 -10 9 -10 20 0 38 -100 56 -119 23 -5 -10 -13 -15 -16 -11 -10 10
105 170 118 165 7 -2 17 -42 24 -88z m374 20 c25 -25 17 -39 -10 -15 -26 23
-65 17 -69 -10 -2 -16 8 -29 40 -51 50 -33 60 -69 29 -97 -19 -17 -24 -18 -58
-5 -23 9 -39 23 -42 34 -3 18 -1 18 22 -3 34 -32 71 -27 75 10 3 23 -3 30 -37
48 -63 32 -76 80 -27 100 34 14 55 11 77 -11z m279 -50 l0 -40 53 3 52 3 3 43
c6 83 22 41 22 -59 0 -64 -4 -98 -10 -94 -5 3 -10 26 -10 51 l0 45 -52 -3 -53
-3 -3 -47 c-6 -89 -22 -49 -22 53 0 64 4 98 10 94 6 -3 10 -24 10 -46z m1227
-95 c-3 -3 -12 -4 -19 -1 -8 3 -5 6 6 6 11 1 17 -2 13 -5z m-72 -24 c-3 -5
-12 -10 -18 -10 -7 0 -6 4 3 10 19 12 23 12 15 0z"/>
<path d="M4517 6777 c-36 -35 -56 -130 -36 -166 16 -29 56 -39 88 -22 22 12
51 89 51 136 0 65 -61 95 -103 52z"/>
<path d="M5470 6324 c-36 -14 -69 -29 -74 -34 -5 -5 10 -20 34 -35 38 -24 43
-25 59 -11 24 22 63 94 54 99 -5 3 -37 -6 -73 -19z"/>
<path d="M2520 5530 c0 -5 4 -10 9 -10 6 0 13 5 16 10 3 6 -1 10 -9 10 -9 0
-16 -4 -16 -10z"/>
<path d="M3836 3568 c-57 -15 -121 -83 -141 -150 -25 -83 -30 -211 -11 -291
20 -83 44 -132 88 -174 47 -45 96 -63 175 -63 82 0 126 20 165 76 90 129 70
454 -34 551 -59 55 -152 74 -242 51z"/>
<path d="M1255 3368 c-26 -68 -56 -144 -66 -170 l-19 -48 141 0 c78 0 139 4
137 9 -39 105 -134 331 -139 331 -4 0 -28 -55 -54 -122z"/>
<path d="M3616 2311 c-20 -32 257 -47 327 -18 20 9 37 18 37 21 0 10 -359 7
-364 -3z"/>
<path d="M4520 2011 c0 -5 -8 -11 -17 -13 -17 -3 -17 -4 -1 -10 12 -5 21 -1
28 12 7 14 7 20 0 20 -5 0 -10 -4 -10 -9z"/>
<path d="M4578 1943 c7 -3 16 -2 19 1 4 3 -2 6 -13 5 -11 0 -14 -3 -6 -6z"/>
<path d="M5744 1609 c-20 -22 -13 -43 19 -63 26 -16 68 31 56 62 -11 28 -49
29 -75 1z"/>
<path d="M5810 1545 l-24 -26 25 -25 c29 -28 50 -25 70 12 28 53 -29 84 -71
39z"/>
<path d="M1743 1518 c-39 -24 -41 -37 -8 -61 l25 -18 20 46 c11 26 20 49 20
51 0 9 -27 1 -57 -18z"/>
<path d="M5464 1368 c-30 -14 -48 -51 -40 -83 9 -36 50 -75 79 -75 29 0 73 33
82 60 9 27 -21 85 -51 99 -30 13 -42 13 -70 -1z"/>
<path d="M4467 863 c-4 -3 -7 -26 -7 -51 0 -43 1 -44 28 -37 43 10 47 21 21
60 -25 36 -31 40 -42 28z"/>
<path d="M3061 819 c-28 -38 -21 -59 19 -59 27 0 30 3 30 29 0 33 -9 61 -19
61 -4 0 -17 -14 -30 -31z"/>
</g>
</svg>
